<svg width="53" height="39" viewBox="0 0 53 39" fill="none" xmlns="http://www.w3.org/2000/svg">
<path d="M33.625 24.25C27.2837 24.25 14.625 27.4087 14.625 33.75V38.5H52.625V33.75C52.625 27.4087 39.9663 24.25 33.625 24.25ZM12.25 14.75V7.625H7.5V14.75H0.375V19.5H7.5V26.625H12.25V19.5H19.375V14.75M33.625 19.5C36.1446 19.5 38.5609 18.4991 40.3425 16.7175C42.1241 14.9359 43.125 12.5196 43.125 10C43.125 7.48044 42.1241 5.06408 40.3425 3.28249C38.5609 1.50089 36.1446 0.5 33.625 0.5C31.1054 0.5 28.6891 1.50089 26.9075 3.28249C25.1259 5.06408 24.125 7.48044 24.125 10C24.125 12.5196 25.1259 14.9359 26.9075 16.7175C28.6891 18.4991 31.1054 19.5 33.625 19.5Z" fill="#527920"/>
</svg>
