<svg width="20" height="20" viewBox="0 0 20 20" fill="none" xmlns="http://www.w3.org/2000/svg">
<path d="M11.0572 3.05737C11.3072 2.80741 11.6463 2.66699 11.9998 2.66699C12.3534 2.66699 12.6925 2.80741 12.9425 3.05737L18.9425 9.05737C19.1925 9.30741 19.3329 9.64649 19.3329 10C19.3329 10.3536 19.1925 10.6927 18.9425 10.9427L12.9425 16.9427C12.691 17.1856 12.3542 17.32 12.0046 17.3169C11.655 17.3139 11.3206 17.1737 11.0734 16.9265C10.8262 16.6793 10.686 16.3448 10.6829 15.9952C10.6799 15.6456 10.8143 15.3088 11.0572 15.0574L14.6665 11.3334H1.99984C1.64622 11.3334 1.30708 11.1929 1.05703 10.9429C0.80698 10.6928 0.666504 10.3537 0.666504 10C0.666504 9.64642 0.80698 9.30728 1.05703 9.05723C1.30708 8.80718 1.64622 8.66671 1.99984 8.66671H14.6665L11.0572 4.94271C10.8072 4.69267 10.6668 4.35359 10.6668 4.00004C10.6668 3.64649 10.8072 3.30741 11.0572 3.05737Z" fill="white"/>
</svg>
