<svg width="55" height="55" viewBox="0 0 55 55" fill="none" xmlns="http://www.w3.org/2000/svg">
<g clip-path="url(#clip0_27_357)">
<path d="M26.6864 47.0711C25.9988 47.7585 25.0663 48.1447 24.0941 48.1447C23.1218 48.1447 22.1893 47.7585 21.5017 47.0711L5.00174 30.5711C4.31435 29.8835 3.92819 28.951 3.92819 27.9788C3.92819 27.0065 4.31435 26.074 5.00174 25.3864L21.5017 8.88644C22.1933 8.21852 23.1195 7.84894 24.0809 7.8573C25.0423 7.86565 25.9619 8.25127 26.6417 8.9311C27.3216 9.61093 27.7072 10.5306 27.7155 11.492C27.7239 12.4534 27.3543 13.3796 26.6864 14.0711L16.7607 24.3121L51.5941 24.3121C52.5665 24.3121 53.4992 24.6984 54.1868 25.386C54.8744 26.0737 55.2607 27.0063 55.2607 27.9788C55.2607 28.9512 54.8744 29.8839 54.1868 30.5715C53.4992 31.2591 52.5665 31.6454 51.5941 31.6454L16.7607 31.6454L26.6864 41.8864C27.3738 42.574 27.76 43.5065 27.76 44.4788C27.76 45.451 27.3738 46.3835 26.6864 47.0711Z" fill="#527920"/>
</g>
<defs>
<clipPath id="clip0_27_357">
<rect width="55" height="55" fill="white" transform="translate(55 55) rotate(180)"/>
</clipPath>
</defs>
</svg>
