<svg width="106" height="106" viewBox="0 0 106 106" fill="none" xmlns="http://www.w3.org/2000/svg">
<g clip-path="url(#clip0_102_44)">
<g clip-path="url(#clip1_102_44)">
<g clip-path="url(#clip2_102_44)">
<path d="M101.308 60.8624L96.2247 65.9458L85.8038 55.5249L90.8872 50.4416C91.4098 49.9293 92.1124 49.6424 92.8443 49.6424C93.5761 49.6424 94.2787 49.9293 94.8013 50.4416L101.308 56.9482C102.376 58.0157 102.376 59.7949 101.308 60.8624ZM51.9997 89.2782L82.8047 58.4732L93.2255 68.8941L62.4713 99.7499H51.9997V89.2782ZM51.9997 64.1666C29.5313 64.1666 11.333 73.2657 11.333 84.4999V94.6666H41.833V85.0591L62.1663 64.7257C58.8113 64.3191 55.4055 64.1666 51.9997 64.1666ZM51.9997 13.3333C46.6069 13.3333 41.4351 15.4755 37.6218 19.2887C33.8086 23.102 31.6663 28.2738 31.6663 33.6666C31.6663 39.0593 33.8086 44.2312 37.6218 48.0444C41.4351 51.8577 46.6069 53.9999 51.9997 53.9999C57.3924 53.9999 62.5643 51.8577 66.3775 48.0444C70.1908 44.2312 72.333 39.0593 72.333 33.6666C72.333 28.2738 70.1908 23.102 66.3775 19.2887C62.5643 15.4755 57.3924 13.3333 51.9997 13.3333Z" fill="#527920"/>
</g>
</g>
</g>
<defs>
<clipPath id="clip0_102_44">
<rect width="106" height="106" fill="white"/>
</clipPath>
<clipPath id="clip1_102_44">
<rect width="106" height="106" fill="white"/>
</clipPath>
<clipPath id="clip2_102_44">
<rect width="123.966" height="123.966" fill="white" transform="translate(-8.9834 -8.98315)"/>
</clipPath>
</defs>
</svg>
