<svg width="24" height="26" viewBox="0 0 24 26" fill="none" xmlns="http://www.w3.org/2000/svg">
<path fill-rule="evenodd" clip-rule="evenodd" d="M4.57166 8.35986C4.57166 6.37074 5.36183 4.46309 6.76835 3.05656C8.17488 1.65004 10.0825 0.859863 12.0717 0.859863C14.0608 0.859863 15.9684 1.65004 17.375 3.05656C18.7815 4.46309 19.5717 6.37074 19.5717 8.35986H20.8217C21.4847 8.35986 22.1206 8.62326 22.5894 9.0921C23.0583 9.56094 23.3217 10.1968 23.3217 10.8599V23.3599C23.3217 24.0229 23.0583 24.6588 22.5894 25.1276C22.1206 25.5965 21.4847 25.8599 20.8217 25.8599H3.32166C2.65861 25.8599 2.02273 25.5965 1.55389 25.1276C1.08505 24.6588 0.821655 24.0229 0.821655 23.3599V10.8599C0.821655 10.1968 1.08505 9.56094 1.55389 9.0921C2.02273 8.62326 2.65861 8.35986 3.32166 8.35986H4.57166ZM12.0717 3.35986C13.3977 3.35986 14.6695 3.88665 15.6072 4.82433C16.5449 5.76201 17.0717 7.03378 17.0717 8.35986H7.07166C7.07166 7.03378 7.59844 5.76201 8.53612 4.82433C9.4738 3.88665 10.7456 3.35986 12.0717 3.35986ZM14.5717 15.8599C14.5716 16.2987 14.4561 16.7298 14.2367 17.1098C14.0173 17.4899 13.7017 17.8054 13.3217 18.0249V19.6099C13.3217 19.9414 13.19 20.2593 12.9555 20.4937C12.7211 20.7282 12.4032 20.8599 12.0717 20.8599C11.7401 20.8599 11.4222 20.7282 11.1878 20.4937C10.9534 20.2593 10.8217 19.9414 10.8217 19.6099V18.0249C10.3451 17.7497 9.97262 17.3249 9.76204 16.8165C9.55146 16.3081 9.51452 15.7444 9.65695 15.2128C9.79939 14.6812 10.1132 14.2115 10.5498 13.8765C10.9864 13.5415 11.5213 13.3599 12.0717 13.3599C12.7347 13.3599 13.3706 13.6233 13.8394 14.0921C14.3083 14.5609 14.5717 15.1968 14.5717 15.8599Z" fill="white"/>
</svg>
