<svg width="106" height="106" viewBox="0 0 106 106" fill="none" xmlns="http://www.w3.org/2000/svg">
<g clip-path="url(#clip0_27_391)">
<g clip-path="url(#clip1_27_391)">
<path d="M52.1013 53.8983C46.4196 53.8983 41.5556 51.8753 37.5095 47.8292C33.4634 43.783 31.4403 38.9191 31.4403 33.2373C31.4403 27.5555 33.4634 22.6916 37.5095 18.6455C41.5556 14.5994 46.4196 12.5763 52.1013 12.5763C57.7831 12.5763 62.6471 14.5994 66.6932 18.6455C70.7393 22.6916 72.7623 27.5555 72.7623 33.2373C72.7623 38.9191 70.7393 43.783 66.6932 47.8292C62.6471 51.8753 57.7831 53.8983 52.1013 53.8983ZM10.7793 95.2204V80.7577C10.7793 77.8307 11.5334 75.1413 13.0417 72.6895C14.5499 70.2377 16.5506 68.3645 19.0437 67.0697C24.3811 64.401 29.8046 62.4003 35.3143 61.0677C40.8239 59.7351 46.4196 59.067 52.1013 59.0636C57.7831 59.0636 63.3788 59.7316 68.8884 61.0677C74.398 62.4038 79.8215 64.4045 85.159 67.0697C87.6555 68.361 89.6579 70.2343 91.1661 72.6895C92.6744 75.1447 93.4268 77.8341 93.4234 80.7577V95.2204H10.7793Z" fill="#527920"/>
</g>
</g>
<defs>
<clipPath id="clip0_27_391">
<rect width="106" height="106" fill="white"/>
</clipPath>
<clipPath id="clip1_27_391">
<rect width="106" height="106" fill="white"/>
</clipPath>
</defs>
</svg>
