<svg width="77" height="68" viewBox="0 0 77 68" fill="none" xmlns="http://www.w3.org/2000/svg">
<g clip-path="url(#clip0_19_57)">
<path d="M76.2902 31.3796L68.4444 24.4959V6.375C68.4444 5.81141 68.2191 5.27091 67.818 4.8724C67.4169 4.47388 66.8728 4.25 66.3056 4.25H57.75C57.1827 4.25 56.6387 4.47388 56.2376 4.8724C55.8365 5.27091 55.6111 5.81141 55.6111 6.375V13.2374L42.08 1.36797C41.2405 0.612266 39.6403 0 38.5 0C37.3597 0 35.7649 0.612266 34.9254 1.36797L0.70316 31.3836C0.281507 31.8068 0.0312386 32.3694 0 32.9641C0.0273202 33.4835 0.218622 33.9812 0.546753 34.3865L3.40885 37.5461C3.85492 37.9438 4.4167 38.1903 5.01302 38.25C5.53002 38.1987 6.02361 38.0101 6.44207 37.7041L8.56759 35.8448V63.75C8.56759 64.8772 9.01828 65.9582 9.82052 66.7552C10.6228 67.5522 11.7108 68 12.8454 68H64.1667C65.3012 68 66.3893 67.5522 67.1915 66.7552C67.9938 65.9582 68.4444 64.8772 68.4444 63.75V35.8434L70.5713 37.7028C70.9916 38.0084 71.4862 38.1973 72.0044 38.25C72.5953 38.1886 73.1512 37.9416 73.5911 37.5448L76.4532 34.3825C76.7604 33.9666 76.9493 33.4762 77 32.9627C76.9386 32.3735 76.69 31.819 76.2902 31.3796ZM38.5 23.375C40.1921 23.375 41.8463 23.8735 43.2532 24.8075C44.6602 25.7415 45.7568 27.069 46.4043 28.6222C47.0519 30.1754 47.2213 31.8844 46.8912 33.5333C46.561 35.1821 45.7462 36.6967 44.5497 37.8854C43.3532 39.0742 41.8287 39.8837 40.1691 40.2117C38.5095 40.5396 36.7893 40.3713 35.2259 39.728C33.6626 39.0846 32.3264 37.9952 31.3863 36.5973C30.4462 35.1995 29.9444 33.5561 29.9444 31.875C29.9444 29.6207 30.8458 27.4587 32.4503 25.8646C34.0548 24.2705 36.2309 23.375 38.5 23.375ZM53.4722 59.5H23.5278C22.9605 59.5 22.4165 59.2761 22.0154 58.8776C21.6142 58.4791 21.3889 57.9386 21.3889 57.375C21.3889 53.9935 22.741 50.7505 25.1477 48.3594C27.5544 45.9683 30.8186 44.625 34.2222 44.625H42.7778C46.1814 44.625 49.4456 45.9683 51.8523 48.3594C54.259 50.7505 55.6111 53.9935 55.6111 57.375C55.6111 57.9386 55.3858 58.4791 54.9846 58.8776C54.5835 59.2761 54.0395 59.5 53.4722 59.5Z" fill="#527920"/>
</g>
<defs>
<clipPath id="clip0_19_57">
<rect width="77" height="68" fill="white"/>
</clipPath>
</defs>
</svg>
