<svg width="101" height="101" viewBox="0 0 101 101" fill="none" xmlns="http://www.w3.org/2000/svg">
<path d="M6.3125 26.8281C6.3125 22.4725 9.8475 18.9375 14.2031 18.9375H74.1719C78.5275 18.9375 82.0625 22.4725 82.0625 26.8281V61.5469C82.0625 65.9025 78.5275 69.4375 74.1719 69.4375H14.2031C9.8475 69.4375 6.3125 65.9025 6.3125 61.5469V26.8281ZM25.25 28.4062V25.25H18.9375V28.4062C18.9375 29.2433 18.605 30.0461 18.0131 30.6381C17.4211 31.23 16.6183 31.5625 15.7812 31.5625H12.625V37.875H15.7812C18.2925 37.875 20.7009 36.8774 22.4767 35.1017C24.2524 33.3259 25.25 30.9175 25.25 28.4062ZM56.8125 44.1875C56.8125 40.8391 55.4824 37.6279 53.1147 35.2603C50.7471 32.8926 47.5359 31.5625 44.1875 31.5625C40.8391 31.5625 37.6279 32.8926 35.2603 35.2603C32.8926 37.6279 31.5625 40.8391 31.5625 44.1875C31.5625 47.5359 32.8926 50.7471 35.2603 53.1147C37.6279 55.4824 40.8391 56.8125 44.1875 56.8125C47.5359 56.8125 50.7471 55.4824 53.1147 53.1147C55.4824 50.7471 56.8125 47.5359 56.8125 44.1875ZM69.4375 25.25H63.125V28.4062C63.125 30.9175 64.1226 33.3259 65.8983 35.1017C67.6741 36.8774 70.0825 37.875 72.5938 37.875H75.75V31.5625H72.5938C71.7567 31.5625 70.9538 31.23 70.3619 30.6381C69.77 30.0461 69.4375 29.2433 69.4375 28.4062V25.25ZM25.25 59.9688C25.25 57.4575 24.2524 55.0491 22.4767 53.2733C20.7009 51.4976 18.2925 50.5 15.7812 50.5H12.625V56.8125H15.7812C16.6183 56.8125 17.4211 57.145 18.0131 57.7369C18.605 58.3289 18.9375 59.1317 18.9375 59.9688V63.125H25.25V59.9688ZM69.4375 63.125V59.9688C69.4375 59.1317 69.77 58.3289 70.3619 57.7369C70.9538 57.145 71.7567 56.8125 72.5938 56.8125H75.75V50.5H72.5938C70.0825 50.5 67.6741 51.4976 65.8983 53.2733C64.1226 55.0491 63.125 57.4575 63.125 59.9688V63.125H69.4375ZM28.4062 82.0625C26.4066 82.0633 24.458 81.4309 22.8398 80.2561C21.2216 79.0813 20.0169 77.4244 19.3983 75.5227C20.2758 75.6742 21.1721 75.75 22.0938 75.75H74.1719C77.9388 75.75 81.5514 74.2536 84.215 71.59C86.8786 68.9264 88.375 65.3138 88.375 61.5469V32.0991C90.2219 32.752 91.8208 33.9618 92.9514 35.5615C94.082 37.1613 94.6885 39.0723 94.6875 41.0312V61.5469C94.6875 64.241 94.1568 66.9088 93.1258 69.3979C92.0948 71.8869 90.5837 74.1486 88.6786 76.0536C86.7736 77.9587 84.5119 79.4698 82.0229 80.5008C79.5338 81.5318 76.866 82.0625 74.1719 82.0625H28.4062Z" fill="#527920"/>
</svg>
