<svg width="96" height="96" viewBox="0 0 96 96" fill="none" xmlns="http://www.w3.org/2000/svg">
<g clip-path="url(#clip0_19_1268)">
<path d="M18.375 19.6406C18.375 14.1465 22.834 9.6875 28.3281 9.6875H53.9219C59.416 9.6875 63.875 14.1465 63.875 19.6406V22.7289L80.7953 39.6493C82.6437 41.4979 84.1099 43.6925 85.1102 46.1077C86.1105 48.523 86.6252 51.1116 86.625 53.7258V86.4688C86.625 87.223 86.3254 87.9463 85.7921 88.4796C85.2588 89.0129 84.5355 89.3125 83.7812 89.3125C83.027 89.3125 82.3037 89.0129 81.7704 88.4796C81.2371 87.9463 80.9375 87.223 80.9375 86.4688V53.7258C80.9378 51.8584 80.5704 50.0093 79.856 48.284C79.1417 46.5586 78.0945 44.9909 76.7742 43.6703L63.875 30.7711V45.4732L68.7321 50.3304C69.2661 50.8636 69.5664 51.5871 69.5669 52.3417C69.5675 53.0964 69.2682 53.8203 68.735 54.3543C68.2017 54.8883 67.4782 55.1885 66.7236 55.1891C65.969 55.1896 65.245 54.8904 64.7111 54.3571L53.1711 42.8115L50.9189 40.8436C50.0291 40.3878 49.0059 40.2645 48.0333 40.496C47.0607 40.7275 46.2027 41.2985 45.6137 42.1063C45.0246 42.9141 44.7433 43.9056 44.8202 44.9023C44.8971 45.8991 45.3273 46.8357 46.0333 47.5435L54.5134 56.0179C54.7783 56.282 54.9885 56.5958 55.132 56.9413C55.2755 57.2868 55.3494 57.6572 55.3494 58.0312V63.7188C55.3494 65.2272 55.9487 66.6738 57.0153 67.7404C58.0819 68.807 59.5285 69.4062 61.0369 69.4062C61.7902 69.4078 62.512 69.708 63.0441 70.2412C63.5762 70.7743 63.875 71.4968 63.875 72.25V79.3594C63.875 81.9991 62.8264 84.5307 60.9598 86.3973C59.0932 88.2639 56.5616 89.3125 53.9219 89.3125H28.3281C25.6884 89.3125 23.1568 88.2639 21.2902 86.3973C19.4236 84.5307 18.375 81.9991 18.375 79.3594V19.6406ZM58.1875 76.5156V74.7354C56.5338 74.3081 54.9979 73.5129 53.6944 72.4092C51.755 72.7914 50.0085 73.8351 48.7533 75.3621C47.4981 76.8891 46.8121 78.8046 46.8125 80.7812V83.625H51.0781C51.5672 83.625 52.045 83.5738 52.5 83.4828V80.7812C52.5 80.027 52.7996 79.3037 53.3329 78.7704C53.8662 78.2371 54.5895 77.9375 55.3438 77.9375H58.0453C58.1363 77.4825 58.1875 77.0048 58.1875 76.5156ZM48.5586 58.1109L42.0179 51.5646C40.2519 49.803 39.2171 47.4389 39.1211 44.9464C39.0251 42.4538 39.875 40.0172 41.5004 38.125H41.125C39.2897 38.1252 37.4816 38.5694 35.8552 39.4198C34.2288 40.2702 32.8323 41.5016 31.785 43.0087C30.7376 44.5159 30.0705 46.254 29.8406 48.0749C29.6107 49.8958 29.8247 51.7452 30.4645 53.4654C31.1043 55.1856 32.1509 56.7254 33.5148 57.9535C34.8788 59.1815 36.5196 60.0613 38.2973 60.5177C40.075 60.9741 41.9367 60.9936 43.7235 60.5744C45.5103 60.1553 47.1692 59.3101 48.5586 58.1109ZM35.4375 18.2188V15.375H31.1719C30.6827 15.375 30.205 15.4262 29.75 15.5172V18.2188C29.75 18.973 29.4504 19.6963 28.9171 20.2296C28.3838 20.7629 27.6605 21.0625 26.9062 21.0625H24.2047C24.1137 21.5175 24.0625 21.9952 24.0625 22.4844V26.75H26.9062C29.1689 26.75 31.3388 25.8512 32.9388 24.2513C34.5387 22.6513 35.4375 20.4814 35.4375 18.2188ZM26.9062 72.25H24.0625V76.5156C24.0625 77.0048 24.1137 77.4825 24.2047 77.9375H26.9062C27.6605 77.9375 28.3838 78.2371 28.9171 78.7704C29.4504 79.3037 29.75 80.027 29.75 80.7812V83.4828C30.205 83.5738 30.6827 83.625 31.1719 83.625H35.4375V80.7812C35.4375 78.5186 34.5387 76.3487 32.9388 74.7487C31.3388 73.1488 29.1689 72.25 26.9062 72.25ZM52.5 18.2188V15.5172C52.032 15.4224 51.5556 15.3748 51.0781 15.375H46.8125V18.2188C46.8125 20.4814 47.7113 22.6513 49.3112 24.2513C50.9112 25.8512 53.0811 26.75 55.3438 26.75H58.1875V22.4844C58.1875 21.9952 58.1363 21.5175 58.0453 21.0625H55.3438C54.5895 21.0625 53.8662 20.7629 53.3329 20.2296C52.7996 19.6963 52.5 18.973 52.5 18.2188Z" fill="#527920"/>
</g>
<defs>
<clipPath id="clip0_19_1268">
<rect width="96" height="96" fill="white"/>
</clipPath>
</defs>
</svg>
