<svg width="96" height="85" viewBox="0 0 96 85" fill="none" xmlns="http://www.w3.org/2000/svg">
<path d="M95.115 39.2245L85.3333 30.6199V7.96875C85.3333 7.26427 85.0524 6.58864 84.5523 6.0905C84.0522 5.59235 83.3739 5.3125 82.6667 5.3125H72C71.2928 5.3125 70.6145 5.59235 70.1144 6.0905C69.6143 6.58864 69.3333 7.26427 69.3333 7.96875V16.5468L52.4633 1.70996C51.4167 0.765332 49.4217 0 48 0C46.5783 0 44.59 0.765332 43.5433 1.70996L0.876667 39.2295C0.35097 39.7586 0.0389469 40.4617 0 41.2051C0.0340615 41.8544 0.272568 42.4765 0.681667 42.9831L4.25 46.9326C4.80613 47.4297 5.50653 47.7379 6.25 47.8125C6.89457 47.7483 7.50995 47.5127 8.03167 47.1302L10.6817 44.806V79.6875C10.6817 81.0965 11.2436 82.4477 12.2438 83.444C13.244 84.4403 14.6005 85 16.015 85H80C81.4145 85 82.771 84.4403 83.7712 83.444C84.7714 82.4477 85.3333 81.0965 85.3333 79.6875V44.8043L87.985 47.1285C88.509 47.5105 89.1257 47.7466 89.7717 47.8125C90.5085 47.7358 91.2015 47.427 91.75 46.931L95.3183 42.9781C95.7013 42.4582 95.9368 41.8452 96 41.2034C95.9235 40.4669 95.6135 39.7738 95.115 39.2245ZM48 29.2188C50.1097 29.2188 52.172 29.8419 53.9261 31.0094C55.6802 32.1769 57.0474 33.8363 57.8547 35.7777C58.6621 37.7192 58.8733 39.8555 58.4617 41.9166C58.0501 43.9776 57.0342 45.8708 55.5425 47.3568C54.0507 48.8427 52.1501 49.8546 50.081 50.2646C48.0118 50.6746 45.8671 50.4642 43.918 49.66C41.969 48.8558 40.3031 47.494 39.131 45.7467C37.9589 43.9994 37.3333 41.9452 37.3333 39.8438C37.3333 37.0258 38.4571 34.3233 40.4575 32.3307C42.4579 30.3382 45.171 29.2188 48 29.2188ZM66.6667 74.375H29.3333C28.6261 74.375 27.9478 74.0951 27.4477 73.597C26.9476 73.0989 26.6667 72.4232 26.6667 71.7188C26.6667 67.4919 28.3524 63.4381 31.353 60.4492C34.3535 57.4604 38.4232 55.7812 42.6667 55.7812H53.3333C57.5768 55.7812 61.6465 57.4604 64.647 60.4492C67.6476 63.4381 69.3333 67.4919 69.3333 71.7188C69.3333 72.4232 69.0524 73.0989 68.5523 73.597C68.0522 74.0951 67.3739 74.375 66.6667 74.375Z" fill="#527920"/>
</svg>
