<svg width="84" height="68" viewBox="0 0 84 68" fill="none" xmlns="http://www.w3.org/2000/svg">
<path d="M50.4 63.75C50.4 65.3039 50.8069 66.7516 51.5287 68H51.45C48.5494 68 46.2 65.6227 46.2 62.6875V51C46.2 48.6492 44.3231 46.75 42 46.75H33.6C31.2769 46.75 29.4 48.6492 29.4 51V62.6875C29.4 65.6227 27.0506 68 24.15 68H16.8131C16.6163 68 16.4194 67.9867 16.2225 67.9734C16.065 67.9867 15.9075 68 15.75 68H13.65C10.7494 68 8.4 65.6227 8.4 62.6875V47.8125C8.4 47.693 8.4 47.5602 8.41312 47.4406V38.1969H4.2C1.8375 38.1969 0 36.3375 0 33.9336C0 32.7383 0.39375 31.6758 1.3125 30.7461L34.965 1.0625C35.8837 0.132812 36.9337 0 37.8525 0C38.7712 0 39.8212 0.265625 40.6087 0.929688L64.4044 22.0867C58.695 24.132 54.6 29.6437 54.6 36.125V39.3922C52.0931 40.8664 50.4 43.6023 50.4 46.75V63.75ZM69.3 31.875C66.9769 31.875 65.1 33.7742 65.1 36.125V42.5H73.5V36.125C73.5 33.7742 71.6231 31.875 69.3 31.875ZM58.8 36.125C58.8 30.2547 63.4987 25.5 69.3 25.5C75.1012 25.5 79.8 30.2547 79.8 36.125V42.5C82.1231 42.5 84 44.3992 84 46.75V63.75C84 66.1008 82.1231 68 79.8 68H58.8C56.4769 68 54.6 66.1008 54.6 63.75V46.75C54.6 44.3992 56.4769 42.5 58.8 42.5V36.125Z" fill="#527920"/>
</svg>
