<svg xmlns="http://www.w3.org/2000/svg" xmlns:xlink="http://www.w3.org/1999/xlink" width="500" zoomAndPan="magnify" viewBox="0 0 375 187.499995" height="250" preserveAspectRatio="xMidYMid meet" version="1.0"><defs><g/><clipPath id="53afd7c918"><path d="M 0.5 0 L 166.382812 0 L 166.382812 187 L 0.5 187 Z M 0.5 0 " clip-rule="nonzero"/></clipPath></defs><path fill="#c1ff72" d="M 3.527344 181.835938 L 3.527344 78.75 L 81.261719 1.015625 L 158.996094 78.75 L 158.996094 181.835938 Z M 3.527344 181.835938 " fill-opacity="1" fill-rule="nonzero"/><path fill="#639250" d="M 158.902344 113.792969 C 158.886719 113.699219 158.847656 113.613281 158.824219 113.527344 C 158.773438 113.328125 158.722656 113.128906 158.644531 112.933594 C 158.589844 112.800781 158.511719 112.6875 158.441406 112.558594 C 158.367188 112.421875 158.304688 112.277344 158.21875 112.144531 C 158.050781 111.894531 157.855469 111.664062 157.644531 111.453125 C 157.640625 111.449219 157.636719 111.445312 157.632812 111.441406 L 116.339844 70.691406 C 114.550781 68.929688 111.675781 68.929688 109.894531 70.691406 L 68.597656 111.441406 C 68.59375 111.445312 68.589844 111.449219 68.585938 111.453125 C 68.375 111.664062 68.179688 111.894531 68.015625 112.144531 C 67.925781 112.277344 67.863281 112.417969 67.792969 112.558594 C 67.726562 112.683594 67.648438 112.800781 67.589844 112.933594 C 67.511719 113.125 67.460938 113.328125 67.40625 113.527344 C 67.382812 113.617188 67.34375 113.699219 67.328125 113.792969 C 67.265625 114.089844 67.238281 114.390625 67.238281 114.695312 C 67.238281 114.699219 67.238281 114.703125 67.238281 114.707031 L 67.238281 177.25 C 67.238281 179.785156 69.289062 181.835938 71.824219 181.835938 L 154.410156 181.835938 C 156.941406 181.835938 158.996094 179.785156 158.996094 177.25 L 158.996094 114.710938 C 158.996094 114.707031 158.996094 114.703125 158.996094 114.699219 C 158.996094 114.390625 158.964844 114.089844 158.902344 113.792969 Z M 158.902344 113.792969 " fill-opacity="1" fill-rule="nonzero"/><g clip-path="url(#53afd7c918)"><path fill="#ffffff" d="M 165.152344 74.089844 L 84.863281 -6.191406 C 82.871094 -8.183594 79.644531 -8.183594 77.65625 -6.191406 L -2.625 74.089844 C -3.683594 75.148438 -4.164062 76.546875 -4.097656 77.929688 C -4.101562 78.003906 -4.121094 78.070312 -4.121094 78.148438 L -4.121094 184.386719 C -4.121094 187.203125 -1.839844 189.484375 0.976562 189.484375 L 161.546875 189.484375 C 164.359375 189.484375 166.640625 187.203125 166.640625 184.386719 L 166.640625 78.148438 C 166.640625 78.074219 166.621094 78.003906 166.621094 77.929688 C 166.683594 76.546875 166.203125 75.148438 165.152344 74.089844 Z M 156.449219 179.292969 L 6.074219 179.292969 L 6.074219 79.804688 L 81.261719 4.621094 L 156.449219 79.808594 Z M 156.449219 179.292969 " fill-opacity="1" fill-rule="nonzero"/></g><g fill="#639250" fill-opacity="1"><g transform="translate(162.106705, 137.822486)"><g><path d="M 9.765625 -58.8125 L 1.265625 -58.8125 L 1.265625 0 L 9.765625 0 L 9.765625 -25.578125 L 34.671875 -25.578125 L 34.671875 0 L 43.25 0 L 43.25 -58.8125 L 34.671875 -58.8125 L 34.671875 -34 L 9.765625 -34 Z M 9.765625 -58.8125 "/></g></g></g><g fill="#639250" fill-opacity="1"><g transform="translate(209.473361, 137.822486)"><g><path d="M 51.234375 -29.453125 C 51.234375 -23.390625 48.796875 -18.09375 45.015625 -14.21875 C 41.0625 -10.265625 35.59375 -7.828125 29.78125 -7.828125 C 23.984375 -7.828125 18.59375 -10.265625 14.71875 -14.21875 C 10.859375 -18.09375 8.40625 -23.46875 8.40625 -29.453125 C 8.40625 -35.421875 10.859375 -40.8125 14.71875 -44.671875 C 18.59375 -48.640625 23.984375 -51.078125 29.78125 -51.078125 C 35.59375 -51.078125 41.0625 -48.640625 45.015625 -44.671875 C 48.796875 -40.8125 51.234375 -35.5 51.234375 -29.453125 Z M -0.171875 -29.453125 C -0.171875 -21.125 3.28125 -13.625 8.578125 -8.15625 C 13.96875 -2.609375 21.546875 0.75 29.78125 0.75 C 38.109375 0.75 45.609375 -2.609375 51.078125 -8.15625 C 56.375 -13.625 59.828125 -21.125 59.828125 -29.453125 C 59.828125 -37.78125 56.375 -45.265625 51.078125 -50.734375 C 45.609375 -56.203125 38.109375 -59.65625 29.78125 -59.65625 C 21.546875 -59.65625 13.96875 -56.203125 8.578125 -50.734375 C 3.28125 -45.265625 -0.171875 -37.78125 -0.171875 -29.453125 Z M -0.171875 -29.453125 "/></g></g></g><g fill="#639250" fill-opacity="1"><g transform="translate(273.245868, 137.822486)"><g><path d="M 10.09375 -41.484375 L 25.5 -18.59375 L 30.296875 -18.59375 L 45.6875 -41.484375 L 45.6875 0 L 54.109375 0 L 54.109375 -58.890625 L 47.375 -58.890625 L 27.9375 -30.296875 L 8.5 -58.890625 L 1.59375 -58.890625 L 1.59375 0 L 10.09375 0 Z M 10.09375 -41.484375 "/></g></g></g><g fill="#639250" fill-opacity="1"><g transform="translate(332.727607, 137.822486)"><g><path d="M 9.59375 -25.15625 L 36.265625 -25.15625 L 36.265625 -33.734375 L 9.59375 -33.734375 L 9.59375 -50.3125 L 36.859375 -50.3125 L 36.859375 -58.8125 L 1.015625 -58.8125 L 1.015625 0 L 36.9375 0 L 36.9375 -8.5 L 9.59375 -8.5 Z M 9.59375 -25.15625 "/></g></g></g><g fill="#639250" fill-opacity="1"><g transform="translate(162.106705, 177.395165)"><g><path d="M 6.171875 -37.140625 L 0.796875 -37.140625 L 0.796875 0 L 6.171875 0 L 6.171875 -16.15625 L 21.890625 -16.15625 L 21.890625 0 L 27.3125 0 L 27.3125 -37.140625 L 21.890625 -37.140625 L 21.890625 -21.46875 L 6.171875 -21.46875 Z M 6.171875 -37.140625 "/></g></g></g><g fill="#639250" fill-opacity="1"><g transform="translate(190.160206, 177.395165)"><g><path d="M 14.71875 0.375 C 21.09375 0.375 28.4375 -3.5625 28.4375 -11.109375 L 28.4375 -37.140625 L 23.015625 -37.140625 L 23.015625 -11.15625 C 23.015625 -7.0625 18.59375 -5 14.71875 -5 C 10.78125 -5 6.375 -7.015625 6.375 -11.109375 L 6.375 -37.140625 L 0.953125 -37.140625 L 0.953125 -11.15625 C 0.953125 -3.5625 8.1875 0.375 14.71875 0.375 Z M 14.71875 0.375 "/></g></g></g><g fill="#639250" fill-opacity="1"><g transform="translate(219.59514, 177.395165)"><g><path d="M 6.171875 -32.046875 L 16.3125 -32.046875 C 22.15625 -32.046875 22.046875 -22.375 16.203125 -22.375 L 6.171875 -22.375 Z M 0.84375 -37.140625 L 0.84375 0 L 17.640625 0 C 24.765625 0 28.4375 -5.640625 28.4375 -11.21875 C 28.4375 -14.71875 26.890625 -18.65625 22.640625 -20.453125 C 26.359375 -23.109375 26.84375 -27.375 25.34375 -31.03125 C 23.96875 -34.484375 20.984375 -37.140625 16.3125 -37.140625 Z M 6.171875 -17.0625 L 17.640625 -17.0625 C 21.25 -17.0625 23.0625 -14.078125 23.0625 -11.15625 C 23.0625 -8.234375 21.25 -5.203125 17.640625 -5.203125 L 6.171875 -5.203125 Z M 6.171875 -17.0625 "/></g></g></g></svg>